<?xml version="1.0" encoding="UTF-8" standalone="no"?>
<!DOCTYPE svg PUBLIC "-//W3C//DTD SVG 1.1//EN"
 "http://www.w3.org/Graphics/SVG/1.1/DTD/svg11.dtd">
<!-- Generated by graphviz version 2.44.2~dev.20201112.1525 (20201112.1525)
 -->
<!-- Title: G Pages: 1 -->
<svg width="306pt" height="418pt"
 viewBox="0.00 0.00 306.10 417.98" xmlns="http://www.w3.org/2000/svg" xmlns:xlink="http://www.w3.org/1999/xlink">
<g id="graph0" class="graph" transform="scale(1 1) rotate(0) translate(4 413.98)">
<title>G</title>
<polygon fill="white" stroke="transparent" points="-4,4 -4,-413.98 302.1,-413.98 302.1,4 -4,4"/>
<!-- a -->
<g id="node1" class="node">
<title>a</title>
<ellipse fill="none" stroke="black" cx="99.1" cy="-260.84" rx="18" ry="18"/>
<text text-anchor="middle" x="99.1" y="-257.14" font-family="Times New Roman,serif" font-size="14.00">a</text>
</g>
<!-- 99.000000 -->
<g id="node2" class="node">
<title>99.000000</title>
<ellipse fill="none" stroke="black" cx="48.1" cy="-135.1" rx="48.19" ry="48.19"/>
<text text-anchor="middle" x="48.1" y="-131.4" font-family="Times New Roman,serif" font-size="14.00">99.000000</text>
</g>
<!-- 10.000000 -->
<g id="node3" class="node">
<title>10.000000</title>
<ellipse fill="none" stroke="black" cx="162.1" cy="-135.1" rx="48.19" ry="48.19"/>
<text text-anchor="middle" x="162.1" y="-131.4" font-family="Times New Roman,serif" font-size="14.00">10.000000</text>
</g>
<!-- Plus -->
<g id="node4" class="node">
<title>Plus</title>
<ellipse fill="none" stroke="black" cx="162.1" cy="-260.84" rx="26.8" ry="26.8"/>
<text text-anchor="middle" x="162.1" y="-257.14" font-family="Times New Roman,serif" font-size="14.00">Plus</text>
</g>
<!-- Plus&#45;&gt;99.000000 -->
<g id="edge1" class="edge">
<title>Plus:&#45;&gt;99.000000:</title>
<path fill="none" stroke="black" d="M144.53,-240.78C129.4,-224.35 107,-200.04 87.6,-178.97"/>
<polygon fill="black" stroke="black" points="89.95,-176.36 80.6,-171.38 84.8,-181.11 89.95,-176.36"/>
<text text-anchor="middle" x="124.6" y="-204.99" font-family="Times New Roman,serif" font-size="14.00">1 </text>
</g>
<!-- Plus&#45;&gt;10.000000 -->
<g id="edge2" class="edge">
<title>Plus:&#45;&gt;10.000000:</title>
<path fill="none" stroke="black" d="M162.1,-233.9C162.1,-222.15 162.1,-207.76 162.1,-193.66"/>
<polygon fill="black" stroke="black" points="165.6,-193.5 162.1,-183.5 158.6,-193.5 165.6,-193.5"/>
<text text-anchor="middle" x="167.6" y="-204.99" font-family="Times New Roman,serif" font-size="14.00">1 </text>
</g>
<!-- Plus&#45;&gt;Plus -->
<g id="edge5" class="edge">
<title>Plus:&#45;&gt;Plus:</title>
<path fill="none" stroke="black" d="M187.34,-270.5C197.84,-271.17 206.74,-267.95 206.74,-260.84 206.74,-256.28 203.09,-253.33 197.7,-251.96"/>
<polygon fill="black" stroke="black" points="197.58,-248.44 187.34,-251.17 197.05,-255.42 197.58,-248.44"/>
<text text-anchor="middle" x="212.24" y="-257.14" font-family="Times New Roman,serif" font-size="14.00">1 </text>
</g>
<!-- Mul -->
<g id="node7" class="node">
<title>Mul</title>
<ellipse fill="none" stroke="black" cx="253.1" cy="-135.1" rx="24.9" ry="24.9"/>
<text text-anchor="middle" x="253.1" y="-131.4" font-family="Times New Roman,serif" font-size="14.00">Mul</text>
</g>
<!-- Plus&#45;&gt;Mul -->
<g id="edge6" class="edge">
<title>Plus:&#45;&gt;Mul:</title>
<path fill="none" stroke="black" d="M177.66,-239.08C189.16,-223.69 205.18,-202.19 219.1,-183.19 223.6,-177.04 228.41,-170.41 232.96,-164.13"/>
<polygon fill="black" stroke="black" points="235.92,-166 238.93,-155.85 230.24,-161.91 235.92,-166"/>
<text text-anchor="middle" x="211.6" y="-204.99" font-family="Times New Roman,serif" font-size="14.00">1 </text>
</g>
<!-- c -->
<g id="node5" class="node">
<title>c</title>
<ellipse fill="none" stroke="black" cx="226.1" cy="-18" rx="18" ry="18"/>
<text text-anchor="middle" x="226.1" y="-14.3" font-family="Times New Roman,serif" font-size="14.00">c</text>
</g>
<!-- b -->
<g id="node6" class="node">
<title>b</title>
<ellipse fill="none" stroke="black" cx="280.1" cy="-18" rx="18" ry="18"/>
<text text-anchor="middle" x="280.1" y="-14.3" font-family="Times New Roman,serif" font-size="14.00">b</text>
</g>
<!-- Mul&#45;&gt;c -->
<g id="edge3" class="edge">
<title>Mul:&#45;&gt;c:</title>
<path fill="none" stroke="black" d="M247.63,-110.8C243.22,-91.98 237,-65.48 232.38,-45.78"/>
<polygon fill="black" stroke="black" points="235.75,-44.85 230.06,-35.91 228.94,-46.44 235.75,-44.85"/>
<text text-anchor="middle" x="243.6" y="-57.8" font-family="Times New Roman,serif" font-size="14.00">1 </text>
</g>
<!-- Mul&#45;&gt;b -->
<g id="edge4" class="edge">
<title>Mul:&#45;&gt;b:</title>
<path fill="none" stroke="black" d="M258.56,-110.8C262.97,-91.98 269.19,-65.48 273.81,-45.78"/>
<polygon fill="black" stroke="black" points="277.25,-46.44 276.13,-35.91 270.44,-44.85 277.25,-46.44"/>
<text text-anchor="middle" x="276.6" y="-57.8" font-family="Times New Roman,serif" font-size="14.00">1 </text>
</g>
<!-- Assign -->
<g id="node8" class="node">
<title>Assign</title>
<ellipse fill="none" stroke="black" cx="116.1" cy="-374.23" rx="36" ry="36"/>
<text text-anchor="middle" x="116.1" y="-370.53" font-family="Times New Roman,serif" font-size="14.00">Assign</text>
</g>
<!-- Assign&#45;&gt;a -->
<g id="edge7" class="edge">
<title>Assign:&#45;&gt;a:</title>
<path fill="none" stroke="black" d="M110.81,-338.6C108.36,-322.56 105.5,-303.8 103.22,-288.83"/>
<polygon fill="black" stroke="black" points="106.64,-288.06 101.67,-278.7 99.72,-289.12 106.64,-288.06"/>
<text text-anchor="middle" x="113.6" y="-309.29" font-family="Times New Roman,serif" font-size="14.00">1 </text>
</g>
<!-- Assign&#45;&gt;Plus -->
<g id="edge8" class="edge">
<title>Assign:&#45;&gt;Plus:</title>
<path fill="none" stroke="black" d="M129.4,-341.01C135.31,-326.71 142.26,-309.87 148.23,-295.42"/>
<polygon fill="black" stroke="black" points="151.6,-296.42 152.18,-285.85 145.13,-293.75 151.6,-296.42"/>
<text text-anchor="middle" x="149.6" y="-309.29" font-family="Times New Roman,serif" font-size="14.00">1 </text>
</g>
</g>
</svg>
